<?xml version="1.0" standalone="no"?>
<!DOCTYPE svg PUBLIC "-//W3C//DTD SVG 20010904//EN"
 "http://www.w3.org/TR/2001/REC-SVG-20010904/DTD/svg10.dtd">
<svg version="1.0" xmlns="http://www.w3.org/2000/svg"
 width="474.000000pt" height="474.000000pt" viewBox="0 0 474.000000 474.000000"
 preserveAspectRatio="xMidYMid meet">

<g transform="translate(0.000000,474.000000) scale(0.100000,-0.100000)"
fill="#000000" stroke="none">
<path d="M1160 3193 c-121 -20 -455 -182 -420 -203 8 -5 -2 -16 -27 -31 -21
-13 -79 -58 -130 -101 -50 -42 -93 -72 -95 -66 -6 17 -165 -160 -225 -250
-130 -195 -148 -352 -49 -417 13 -9 49 -19 79 -22 82 -8 217 21 195 42 -2 2
-26 -2 -53 -10 -101 -31 -200 -14 -244 41 -53 67 -1 241 120 401 50 66 165
193 175 193 2 0 4 -139 4 -310 0 -170 3 -310 8 -310 4 0 60 26 125 58 65 32
121 54 125 50 10 -10 157 91 256 178 47 41 88 74 91 74 3 0 5 -99 5 -220 l0
-220 150 0 150 0 -1 438 0 437 -20 -49 c-45 -111 -246 -376 -286 -376 -20 0
-17 5 45 71 87 93 161 196 203 283 62 127 89 116 -273 116 l-313 1 40 25 c202
127 416 189 518 150 54 -20 77 -58 77 -124 0 -57 17 -80 22 -30 14 140 -82
209 -252 181z m-145 -398 c0 -23 -34 -33 -45 -14 -13 20 1 40 24 37 13 -2 21
-10 21 -23z m55 -273 c0 -22 -311 -257 -324 -245 -3 4 -6 48 -6 99 0 103 5 96
-80 109 -53 8 -83 22 -75 35 7 11 485 13 485 2z"/>
<path d="M497 2983 c-8 -8 -9 -163 -1 -163 3 0 35 25 72 56 36 31 81 66 99 78
18 11 33 24 33 29 0 9 -194 10 -203 0z"/>
<path d="M1460 2508 c0 -4 12 -8 27 -10 36 -4 41 -24 42 -188 1 -182 -4 -209
-43 -226 -28 -12 -19 -13 99 -13 87 -1 125 2 115 9 -8 5 -22 10 -31 10 -9 0
-20 7 -23 16 -3 9 -6 95 -6 193 0 189 3 201 49 201 13 0 22 2 19 5 -8 8 -248
11 -248 3z"/>
<path d="M1765 2510 c-20 -8 -20 -9 1 -9 48 -2 54 -25 54 -205 0 -173 -6 -206
-40 -206 -10 0 -22 -4 -25 -10 -4 -6 26 -10 82 -9 84 1 87 1 56 15 -18 7 -36
22 -42 31 -11 22 -15 303 -3 303 8 0 300 -320 315 -346 22 -38 27 -2 27 194 0
217 3 232 44 232 10 0 17 3 13 6 -9 9 -148 11 -153 2 -3 -4 6 -8 19 -8 42 0
48 -19 45 -140 l-3 -112 -115 130 -115 131 -57 1 c-31 0 -62 2 -70 4 -7 3 -22
1 -33 -4z"/>
<path d="M2770 2508 c0 -4 12 -8 28 -10 l27 -3 3 -197 2 -198 -32 -14 c-30
-13 -13 -14 177 -13 l209 2 8 45 c4 25 10 55 13 68 8 34 -9 26 -28 -13 -26
-56 -69 -76 -152 -73 l-70 3 -3 88 -3 87 29 0 c33 0 57 -23 67 -63 16 -61 25
-32 25 77 0 111 -11 150 -23 86 -8 -38 -40 -70 -72 -70 -25 0 -25 1 -25 90 l0
90 60 0 c79 0 116 -20 140 -73 l19 -42 0 70 1 70 -200 0 c-110 0 -200 -3 -200
-7z"/>
<path d="M3213 2508 c-2 -5 7 -8 20 -8 45 0 48 -15 45 -215 l-3 -188 -35 -13
c-32 -11 -22 -13 93 -13 83 -1 126 3 122 9 -3 6 -15 10 -25 10 -29 0 -40 31
-40 109 0 63 2 71 19 71 17 0 86 -76 156 -173 20 -27 23 -28 100 -24 57 2 73
6 57 11 -21 8 -162 176 -162 194 0 4 15 13 33 20 38 14 67 57 67 100 0 41 -42
89 -88 102 -44 12 -352 18 -359 8z m309 -48 c28 -34 24 -105 -7 -135 -19 -20
-34 -25 -75 -25 l-50 0 0 96 0 96 57 -4 c43 -4 61 -10 75 -28z"/>
<path d="M4152 2321 c-104 -201 -130 -238 -155 -228 -8 3 -49 46 -91 96 l-77
91 40 16 c46 18 72 52 73 95 2 78 -63 119 -190 119 -48 0 -82 -4 -82 -10 0 -5
23 -10 50 -10 69 0 100 -30 100 -95 0 -65 -31 -95 -100 -95 -27 0 -50 -4 -50
-10 0 -5 6 -10 14 -10 8 0 46 -39 84 -87 38 -49 78 -95 88 -103 15 -12 50 -17
159 -19 91 -1 136 1 130 7 -5 6 -19 12 -30 14 -26 4 -31 38 -10 77 l16 31 89
0 90 0 20 -40 c27 -53 25 -65 -12 -78 -27 -8 -9 -10 95 -11 70 -1 127 1 127 4
0 3 -10 9 -23 14 -18 7 -52 64 -133 220 -60 116 -111 211 -114 211 -3 0 -51
-90 -108 -199z m101 -26 l37 -75 -80 0 -80 0 37 74 c21 41 40 75 43 75 3 1 22
-33 43 -74z"/>
<path d="M2280 2455 c0 -30 5 -55 10 -55 6 0 10 7 10 16 0 8 13 29 29 45 23
23 39 29 70 29 l41 0 0 -195 0 -196 -32 -14 c-31 -13 -23 -14 97 -14 117 0
126 2 95 13 l-35 13 -3 196 -2 197 41 0 c41 0 75 -24 106 -75 10 -17 12 -11
12 38 l1 57 -220 0 -220 0 0 -55z"/>
<path d="M670 2204 c-36 -18 -91 -44 -122 -55 -52 -20 -58 -25 -58 -50 l0 -29
125 0 125 0 0 85 c0 47 -1 85 -2 84 -2 0 -32 -16 -68 -35z"/>
<path d="M500 1924 c0 -3 7 -12 15 -20 13 -14 15 -13 15 5 0 12 -6 21 -15 21
-8 0 -15 -3 -15 -6z"/>
<path d="M822 1918 c-7 -7 -12 -21 -11 -32 0 -20 1 -20 9 2 7 16 18 22 40 22
16 0 30 5 30 10 0 14 -54 12 -68 -2z"/>
<path d="M1905 1921 l20 -8 -20 -5 c-18 -5 -18 -6 3 -7 13 -1 22 5 22 14 0 9
-9 15 -22 14 -22 0 -22 -1 -3 -8z"/>
<path d="M1790 1904 c-11 -12 -10 -18 3 -32 16 -15 17 -14 17 16 0 36 -2 38
-20 16z"/>
<path d="M2608 1913 c-25 -6 -23 -29 2 -29 13 0 20 7 20 18 0 10 -1 17 -2 17
-2 -1 -11 -3 -20 -6z"/>
<path d="M2450 1900 c0 -5 5 -10 10 -10 6 0 10 5 10 10 0 6 -4 10 -10 10 -5 0
-10 -4 -10 -10z"/>
<path d="M2528 1903 c21 -4 22 -8 22 -111 0 -76 -3 -103 -11 -95 -6 6 -9 42
-7 91 2 44 0 78 -4 75 -5 -2 -8 -44 -8 -94 0 -82 1 -89 20 -89 19 0 20 7 20
99 0 56 4 103 10 106 6 3 10 12 10 18 0 7 -4 6 -10 -3 -6 -10 -10 -11 -10 -2
0 7 -12 11 -27 11 -24 -2 -25 -2 -5 -6z"/>
<path d="M3002 1859 c0 -42 3 -48 11 -33 6 11 12 30 14 44 2 22 1 23 -7 5 -8
-19 -9 -19 -9 2 -1 12 5 24 12 26 7 3 5 6 -5 6 -15 1 -17 -8 -16 -50z"/>
<path d="M3600 1896 c0 -8 6 -17 13 -19 10 -4 10 -6 0 -6 -10 -1 -13 -27 -13
-96 0 -84 2 -95 18 -94 10 0 12 3 5 6 -9 3 -12 30 -11 91 l2 87 6 -85 6 -85 2
108 c2 89 0 107 -13 107 -8 0 -15 -6 -15 -14z"/>
<path d="M4111 1898 c-1 -10 6 -18 14 -18 8 0 15 8 15 18 0 13 -2 14 -9 3 -7
-11 -9 -11 -14 0 -4 10 -6 9 -6 -3z"/>
<path d="M831 1885 c0 -12 -5 -26 -11 -33 -5 -7 -3 -6 6 2 9 7 14 22 11 32 -4
17 -5 17 -6 -1z"/>
<path d="M2485 1890 c-3 -5 -1 -10 4 -10 6 0 11 5 11 10 0 6 -2 10 -4 10 -3 0
-8 -4 -11 -10z"/>
<path d="M1760 1860 c-12 -7 -12 -12 -2 -22 9 -9 12 -9 12 1 0 7 5 9 13 4 26
-16 57 -14 57 4 0 12 -3 14 -11 6 -11 -11 -39 -7 -49 8 -3 4 -12 4 -20 -1z"/>
<path d="M523 1780 c0 -47 2 -66 4 -42 2 23 2 61 0 85 -2 23 -4 4 -4 -43z"/>
<path d="M600 1850 c0 -5 5 -10 10 -10 6 0 10 5 10 10 0 6 -4 10 -10 10 -5 0
-10 -4 -10 -10z"/>
<path d="M655 1843 c-20 -15 -19 -15 4 -10 29 7 51 -8 51 -34 0 -11 4 -19 8
-19 15 0 6 38 -13 60 -22 24 -24 24 -50 3z"/>
<path d="M780 1845 c0 -8 4 -15 8 -15 5 0 9 7 9 15 0 8 -4 15 -9 15 -4 0 -8
-7 -8 -15z"/>
<path d="M856 1847 c-16 -12 -16 -13 3 -13 12 0 21 6 21 13 0 7 -1 13 -3 13
-2 0 -11 -6 -21 -13z"/>
<path d="M942 1849 c-23 -9 -38 -29 -23 -29 6 0 11 -5 11 -11 0 -6 -6 -9 -13
-6 -23 9 -18 -38 6 -52 19 -13 21 -12 10 1 -7 8 -10 18 -6 21 3 4 1 7 -6 7 -7
0 2 12 21 27 18 15 36 32 40 37 7 11 47 -32 48 -51 0 -7 4 -13 10 -13 5 0 6 7
3 17 -4 11 -3 14 5 9 7 -4 10 -24 8 -46 -2 -22 0 -38 5 -34 25 15 1 101 -35
126 -13 9 -57 7 -84 -3z m18 -14 c-7 -9 -15 -13 -19 -10 -3 3 1 10 9 15 21 14
24 12 10 -5z m75 -5 c3 -5 1 -10 -4 -10 -6 0 -11 5 -11 10 0 6 2 10 4 10 3 0
8 -4 11 -10z"/>
<path d="M1120 1770 c0 -73 3 -90 15 -90 9 0 15 10 15 26 0 14 -4 23 -9 19 -6
-3 -10 19 -9 55 0 33 5 60 9 60 5 0 9 5 9 10 0 6 -7 10 -15 10 -12 0 -15 -17
-15 -90z"/>
<path d="M1162 1834 c-25 -29 -24 -45 1 -19 9 8 22 15 30 15 8 0 17 7 21 15 9
25 -27 17 -52 -11z"/>
<path d="M1270 1831 c0 -24 3 -28 21 -24 12 4 18 11 15 20 -3 8 -6 19 -6 24 0
5 -7 9 -15 9 -10 0 -15 -10 -15 -29z"/>
<path d="M1320 1845 c-10 -12 -10 -15 4 -15 9 0 16 7 16 15 0 8 -2 15 -4 15
-2 0 -9 -7 -16 -15z"/>
<path d="M1350 1846 c0 -9 5 -16 10 -16 6 0 10 4 10 9 0 6 -4 13 -10 16 -5 3
-10 -1 -10 -9z"/>
<path d="M1374 1838 c1 -13 5 -26 10 -30 6 -4 5 -13 -3 -22 -7 -8 -11 -31 -8
-53 l4 -38 1 42 c3 61 22 65 22 4 0 -30 -5 -51 -12 -54 -8 -3 -6 -6 5 -6 14
-1 17 8 17 58 0 33 -4 63 -10 66 -5 3 -10 17 -10 31 0 13 -4 24 -8 24 -5 0 -8
-10 -8 -22z"/>
<path d="M1430 1844 c-7 -7 -16 -11 -21 -8 -5 3 -9 1 -9 -4 0 -18 13 -21 27
-7 21 22 42 18 53 -9 5 -13 14 -27 19 -31 6 -3 11 -26 11 -51 0 -57 -19 -49
-21 9 -2 32 -3 35 -6 13 -6 -40 5 -76 22 -76 12 0 15 14 15 60 0 47 -3 60 -15
60 -8 0 -15 4 -15 9 0 5 -3 18 -6 28 -4 13 0 11 15 -7 11 -14 21 -20 21 -14 0
33 -69 54 -90 28z"/>
<path d="M1600 1850 c-11 -7 -11 -10 -2 -10 7 0 10 -5 6 -12 -4 -7 -3 -8 5 -4
6 4 9 11 6 16 -3 4 1 11 7 13 7 3 9 6 3 6 -5 0 -17 -4 -25 -9z"/>
<path d="M1646 1853 c-3 -3 3 -12 14 -20 11 -8 21 -24 21 -36 1 -17 2 -18 6
-5 5 19 -30 72 -41 61z"/>
<path d="M1679 1846 c8 -9 18 -34 22 -54 l7 -37 1 42 c1 34 -3 45 -21 54 -21
11 -22 11 -9 -5z"/>
<path d="M1902 1853 c10 -2 18 -17 21 -36 4 -31 4 -31 5 6 2 33 -1 37 -20 36
-16 -1 -18 -3 -6 -6z"/>
<path d="M2024 1835 c-7 -27 -34 -56 -34 -36 0 6 5 11 10 11 6 0 10 8 10 18
-1 36 -27 -16 -28 -56 -2 -57 28 -92 78 -92 43 0 65 18 48 40 -8 12 -9 11 -4
-4 5 -14 2 -17 -9 -12 -9 3 -13 2 -10 -4 8 -13 2 -13 -29 2 -14 6 -29 20 -32
32 -4 11 -14 27 -23 34 -12 10 -12 12 -1 6 8 -4 12 -4 8 0 -4 5 2 17 12 29 11
11 17 24 14 29 -3 5 6 6 22 2 19 -5 25 -4 20 5 -4 6 -4 11 1 11 4 0 14 -15 22
-32 8 -18 19 -36 25 -40 8 -6 7 -11 -3 -17 -11 -7 -11 -13 4 -32 l17 -24 -6
28 c-4 18 -3 26 3 23 6 -4 9 5 6 23 -4 31 -24 75 -25 54 0 -7 -5 -13 -11 -13
-6 0 -9 7 -5 15 6 16 6 17 -42 21 -27 2 -33 -2 -38 -21z m103 -37 c-3 -8 -6
-5 -6 6 -1 11 2 17 5 13 3 -3 4 -12 1 -19z m-88 -95 c10 -9 11 -13 3 -13 -16
0 -52 37 -52 52 0 7 8 3 18 -7 9 -11 23 -26 31 -32z"/>
<path d="M2200 1770 c0 -75 3 -90 16 -90 12 0 15 11 13 58 -1 33 1 64 5 70 3
6 2 13 -3 16 -5 4 -12 -2 -14 -11 -2 -10 -2 -3 0 15 2 18 -1 32 -7 32 -6 0
-10 -34 -10 -90z m17 -57 c-2 -16 -4 -5 -4 22 0 28 2 40 4 28 2 -13 2 -35 0
-50z"/>
<path d="M2265 1849 c-4 -5 3 -9 13 -9 19 0 37 -25 33 -45 -1 -5 3 -4 11 3 11
11 10 15 -2 23 -13 9 -13 10 0 6 10 -2 17 -22 21 -63 l6 -59 -1 67 c-1 37 -4
70 -8 73 -11 11 -67 14 -73 4z"/>
<path d="M2670 1836 c0 -9 5 -16 10 -16 6 0 10 4 10 9 0 6 -4 13 -10 16 -5 3
-10 -1 -10 -9z"/>
<path d="M2690 1845 c0 -2 10 -13 22 -25 17 -15 24 -17 31 -8 5 8 6 5 2 -9 -4
-14 -2 -23 4 -23 19 0 12 35 -11 54 -20 18 -21 18 -15 0 7 -18 6 -18 -7 -1
-12 16 -26 23 -26 12z"/>
<path d="M3073 1843 c-12 -2 -33 -16 -47 -30 -22 -21 -26 -35 -26 -79 0 -41 4
-54 15 -54 16 0 19 35 6 80 -5 20 -1 30 22 49 24 21 32 23 48 12 11 -6 24 -9
29 -6 6 4 10 1 10 -4 0 -6 -4 -11 -10 -11 -6 0 -10 -27 -10 -60 0 -51 3 -60
18 -59 10 0 12 3 5 6 -8 3 -12 22 -11 51 l1 47 7 -45 c7 -42 7 -41 7 20 0 36
-5 71 -10 78 -10 12 -15 13 -54 5z m47 -13 c0 -5 -4 -10 -10 -10 -5 0 -10 5
-10 10 0 6 5 10 10 10 6 0 10 -4 10 -10z m-103 -127 c-3 -10 -5 -4 -5 12 0 17
2 24 5 18 2 -7 2 -21 0 -30z"/>
<path d="M3212 1842 c-9 -6 -5 -12 15 -20 24 -11 26 -10 11 1 -10 8 -15 17
-11 20 9 9 1 8 -15 -1z"/>
<path d="M3261 1841 c-9 -6 -10 -11 -2 -15 6 -4 11 -1 11 6 0 7 12 0 25 -15
20 -23 25 -39 25 -83 0 -45 3 -54 18 -54 10 0 13 3 6 8 -6 4 -13 36 -16 72 -3
36 -3 57 -1 48 4 -18 23 -26 23 -10 0 14 -29 48 -30 35 0 -7 -5 -13 -11 -13
-6 0 -9 7 -5 15 6 17 -20 20 -43 6z"/>
<path d="M3464 1835 c8 -8 17 -15 20 -15 3 0 6 7 6 15 0 9 -9 15 -21 15 -18 0
-19 -2 -5 -15z"/>
<path d="M3741 1834 c7 -8 14 -12 17 -10 2 3 14 1 25 -5 15 -8 18 -8 12 1 -5
8 -3 11 6 8 9 -3 13 -17 12 -37 -1 -26 2 -31 13 -27 9 3 18 6 20 6 2 0 4 5 4
11 0 8 -6 7 -17 -2 -15 -13 -15 -12 -4 9 16 31 -9 55 -61 58 -32 2 -37 0 -27
-12z"/>
<path d="M4233 1840 c-27 -11 -28 -16 -7 -24 9 -3 12 -2 8 5 -3 6 1 10 12 9
11 -1 28 -1 39 0 l20 1 -20 9 c-25 11 -25 11 -52 0z"/>
<path d="M4417 1843 c-11 -10 -8 -23 4 -23 5 0 7 5 4 10 -9 14 2 12 41 -6 35
-17 57 -13 37 7 -12 12 -77 22 -86 12z"/>
<path d="M2859 1829 c-7 -4 -5 -9 5 -12 8 -3 17 -3 20 2 8 12 68 4 77 -11 6
-9 9 -9 9 -1 0 27 -78 43 -111 22z"/>
<path d="M3917 1822 c-23 -25 -21 -44 5 -88 12 -21 16 -34 9 -30 -7 4 -16 18
-21 30 -7 17 -9 17 -9 4 -2 -46 72 -76 100 -41 12 15 12 16 -6 9 -45 -18 -55
-19 -49 -3 3 8 1 18 -5 22 -6 3 -11 15 -11 26 0 10 -4 19 -10 19 -5 0 -10 7
-10 15 0 8 6 13 13 11 6 -1 9 -1 5 1 -4 2 -4 11 -1 19 5 13 7 13 14 2 7 -10 9
-10 9 0 0 17 35 15 51 -4 11 -14 13 -14 22 1 5 9 6 19 3 22 -3 4 -6 1 -6 -6 0
-8 -5 -9 -19 -1 -30 15 -66 12 -84 -8z"/>
<path d="M4120 1830 c10 -6 11 -10 3 -10 -9 0 -13 -21 -13 -70 0 -56 3 -70 15
-70 12 0 15 12 13 53 l-1 52 -7 -50 -7 -50 -1 63 c-1 40 2 61 8 57 6 -3 10 3
10 14 0 13 -6 21 -17 21 -15 0 -16 -2 -3 -10z"/>
<path d="M620 1813 c0 -15 -2 -16 -10 -3 -8 12 -10 10 -10 -8 0 -13 4 -20 10
-17 6 4 10 -13 10 -45 0 -32 -4 -49 -10 -45 -5 3 -10 1 -10 -4 0 -6 6 -11 14
-11 11 0 15 18 18 71 2 39 0 73 -4 76 -5 2 -8 -4 -8 -14z"/>
<path d="M1901 1803 c0 -18 3 -33 8 -33 6 0 9 -18 8 -39 0 -22 -5 -37 -9 -35
-4 3 -8 0 -8 -5 0 -6 7 -11 15 -11 11 0 15 11 15 43 0 24 -4 47 -9 53 -5 5
-11 20 -14 34 -4 21 -4 20 -6 -7z"/>
<path d="M3513 1824 c-8 -4 -7 -13 5 -34 15 -27 16 -32 2 -57 -19 -33 -51 -41
-75 -17 -14 14 -18 15 -25 3 -12 -18 4 -36 38 -42 29 -6 57 6 85 34 21 23 24
47 3 30 -12 -10 -13 -9 -9 7 2 11 0 30 -7 42 -6 12 -9 24 -6 27 3 3 12 -9 20
-28 9 -19 15 -29 16 -22 0 16 -22 63 -29 62 -3 0 -11 -3 -18 -5z m17 -114 c0
-5 -5 -10 -11 -10 -5 0 -7 5 -4 10 3 6 8 10 11 10 2 0 4 -4 4 -10z m-70 -16
c0 -2 -7 -4 -15 -4 -8 0 -15 4 -15 10 0 5 7 7 15 4 8 -4 15 -8 15 -10z"/>
<path d="M3702 1818 c-16 -16 -15 -25 4 -32 12 -4 14 -1 9 14 -5 16 -3 19 11
13 12 -4 15 -3 10 5 -9 15 -19 15 -34 0z"/>
<path d="M4315 1821 c6 -11 4 -13 -9 -8 -14 5 -15 3 -6 -13 15 -28 13 -30 -30
-30 -28 0 -40 4 -40 14 0 8 -7 16 -14 19 -21 8 -31 -31 -13 -51 7 -9 17 -26
21 -37 6 -20 6 -20 -9 -1 -8 11 -17 17 -21 14 -10 -11 35 -48 51 -42 8 4 15 1
15 -6 0 -7 8 -9 23 -4 34 10 50 25 37 38 -7 7 -14 5 -23 -8 -9 -12 -18 -15
-35 -9 -23 9 -65 80 -52 88 5 3 11 -3 14 -12 9 -27 81 -26 96 1 6 13 9 14 6 4
-3 -10 0 -20 6 -24 15 -9 2 56 -14 71 -8 7 -9 6 -3 -4z"/>
<path d="M4385 1820 c-9 -14 4 -52 16 -45 5 4 9 1 9 -5 0 -15 42 -29 60 -20
23 12 40 1 40 -26 0 -14 -4 -22 -10 -19 -5 3 -10 1 -10 -5 0 -6 -5 -8 -12 -4
-7 4 -8 3 -4 -4 11 -17 -11 -15 -41 5 -34 23 -53 25 -46 6 5 -12 7 -12 14 -1
7 10 9 9 9 -4 0 -25 55 -34 85 -14 51 34 12 106 -49 90 -16 -4 -26 -2 -26 5 0
6 -7 11 -15 11 -8 0 -15 5 -15 11 0 5 4 7 10 4 6 -3 7 1 4 9 -7 19 -11 20 -19
6z"/>
<path d="M739 1808 c0 -7 0 -36 1 -65 1 -42 -2 -52 -17 -56 -14 -4 -13 -5 5
-6 21 -1 22 3 22 69 0 39 -2 70 -5 70 -3 0 -5 -6 -6 -12z"/>
<path d="M810 1748 c0 -54 3 -68 15 -68 12 0 15 14 15 68 0 54 -3 69 -15 69
-12 0 -15 -15 -15 -69z"/>
<path d="M1779 1815 c-11 -20 5 -128 21 -133 12 -4 13 -2 3 9 -7 8 -13 42 -15
74 -2 33 -6 56 -9 50z"/>
<path d="M1802 1800 c0 -14 2 -19 5 -12 2 6 2 18 0 25 -3 6 -5 1 -5 -13z"/>
<path d="M3201 1750 c-2 -61 0 -70 16 -69 11 0 13 3 6 6 -14 5 -19 103 -5 103
4 0 6 -21 3 -47 -4 -61 5 -53 11 10 5 38 2 49 -12 57 -16 8 -17 2 -19 -60z"/>
<path d="M3401 1793 c-10 -26 -10 -27 4 -9 8 11 15 23 15 28 0 15 -7 8 -19
-19z"/>
<path d="M3427 1790 c-6 -16 -15 -30 -19 -30 -4 0 -7 -10 -7 -22 1 -18 2 -19
6 -5 2 9 9 15 14 12 5 -4 9 3 9 15 0 12 5 30 10 41 6 10 8 19 4 19 -3 0 -11
-13 -17 -30z"/>
<path d="M4034 1803 c-14 -23 -17 -156 -4 -148 6 3 10 2 10 -4 0 -16 -71 -25
-91 -12 -23 14 -39 14 -39 1 0 -5 3 -9 8 -9 4 1 14 1 22 0 13 -1 13 -2 0 -12
-12 -8 -12 -9 5 -7 11 1 25 -1 32 -5 6 -4 14 -3 18 2 3 6 12 8 19 5 23 -9 30
17 32 114 1 50 1 92 0 92 -1 0 -6 -8 -12 -17z m3 -75 c-3 -8 -6 -5 -6 6 -1 11
2 17 5 13 3 -3 4 -12 1 -19z"/>
<path d="M2624 1785 c-4 -14 -4 -29 0 -32 3 -4 6 3 6 15 0 11 6 24 13 28 6 4
9 4 5 -1 -4 -4 -3 -16 3 -26 8 -15 18 -17 61 -14 70 6 76 17 8 14 -51 -3 -55
-1 -54 19 1 32 -34 29 -42 -3z"/>
<path d="M2836 1794 c-8 -22 -8 -26 4 -19 13 8 13 -1 -2 -24 -15 -25 11 -68
48 -77 35 -9 39 0 8 21 -15 9 -23 12 -20 6 4 -6 3 -11 -2 -11 -5 0 -10 18 -10
40 0 22 -4 44 -7 50 -3 5 -1 10 5 10 6 0 8 5 5 10 -9 15 -22 12 -29 -6z m11
-66 c-3 -8 -6 -5 -6 6 -1 11 2 17 5 13 3 -3 4 -12 1 -19z"/>
<path d="M1276 1778 c-3 -7 -6 -32 -8 -55 -3 -36 -1 -43 14 -43 15 0 18 9 18
49 0 47 -15 77 -24 49z m11 -65 c-2 -16 -4 -5 -4 22 0 28 2 40 4 28 2 -13 2
-35 0 -50z"/>
<path d="M1620 1770 c19 -13 30 -13 30 0 0 6 -10 10 -22 10 -19 0 -20 -2 -8
-10z"/>
<path d="M2312 1733 c-2 -49 0 -53 21 -52 16 1 17 3 5 6 -12 3 -18 18 -21 51
l-3 47 -2 -52z"/>
<path d="M3343 1740 c0 -25 2 -35 4 -22 2 12 2 32 0 45 -2 12 -4 2 -4 -23z"/>
<path d="M3687 1773 c-4 -3 -7 -11 -7 -17 0 -6 5 -5 12 2 6 6 9 14 7 17 -3 3
-9 2 -12 -2z"/>
<path d="M1037 1762 c2 -3 -4 -16 -12 -29 -9 -13 -12 -23 -8 -23 14 0 35 42
25 50 -5 4 -7 5 -5 2z"/>
<path d="M1577 1750 c-20 -29 -13 -42 8 -14 13 18 14 18 8 -3 -3 -13 -10 -23
-15 -23 -6 0 -5 -7 2 -15 8 -10 21 -13 33 -9 14 4 17 3 12 -6 -11 -19 29 5 46
27 13 16 12 17 -3 4 -21 -15 -68 -7 -68 12 0 7 6 19 13 26 8 9 8 12 0 7 -6 -3
-13 -1 -15 6 -3 7 -11 2 -21 -12z m28 -50 c3 -5 1 -10 -4 -10 -6 0 -11 5 -11
10 0 6 2 10 4 10 3 0 8 -4 11 -10z"/>
<path d="M1801 1741 c-1 -22 5 -39 17 -47 23 -18 33 -17 26 1 -3 8 -11 13 -17
12 -6 -1 -14 14 -18 33 l-6 35 -2 -34z"/>
<path d="M3715 1743 c3 -19 0 -33 -6 -33 -19 0 1 -18 31 -29 28 -9 29 -9 20 9
-6 11 -15 20 -20 20 -5 0 -14 15 -20 33 l-10 32 5 -32z"/>
<path d="M1680 1744 c0 -8 5 -12 10 -9 6 4 8 11 5 16 -9 14 -15 11 -15 -7z"/>
<path d="M1890 1750 c0 -5 5 -10 10 -10 6 0 10 5 10 10 0 6 -4 10 -10 10 -5 0
-10 -4 -10 -10z"/>
<path d="M3824 1744 c-16 -13 -16 -15 -1 -10 16 5 16 4 1 -22 l-16 -27 21 24
c12 13 21 29 21 37 0 18 -2 17 -26 -2z"/>
<path d="M901 1734 c0 -11 3 -14 6 -6 3 7 2 16 -1 19 -3 4 -6 -2 -5 -13z"/>
<path d="M2634 1737 c-3 -9 -1 -24 5 -34 6 -11 11 -13 11 -5 0 7 5 10 11 6 7
-4 7 2 -1 17 -17 33 -19 34 -26 16z"/>
<path d="M4485 1730 c3 -5 8 -10 11 -10 2 0 4 5 4 10 0 6 -5 10 -11 10 -5 0
-7 -4 -4 -10z"/>
<path d="M924 1718 c-19 -31 78 -49 113 -21 17 13 16 13 -4 4 -29 -15 -46 -14
-37 2 6 10 4 10 -7 0 -7 -7 -20 -13 -28 -13 -12 0 -13 3 -4 8 9 6 7 11 -7 20
-14 8 -21 9 -26 0z"/>
<path d="M1693 1705 c-9 -20 -8 -25 3 -25 8 0 14 10 14 25 0 31 -2 31 -17 0z"/>
<path d="M2940 1715 c0 -8 -5 -15 -11 -15 -5 0 -7 -4 -4 -10 11 -17 21 -11 23
15 1 14 0 25 -3 25 -3 0 -5 -7 -5 -15z"/>
<path d="M2730 1706 c0 -9 -7 -12 -19 -9 -11 3 -28 0 -38 -7 -16 -10 -15 -10
6 -4 17 4 21 3 16 -6 -5 -9 -1 -10 16 -5 43 13 67 45 34 45 -8 0 -15 -6 -15
-14z"/>
<path d="M3770 1696 c0 -2 7 -7 16 -10 8 -3 12 -2 9 4 -6 10 -25 14 -25 6z"/>
<path d="M498 1683 c6 -2 18 -2 25 0 6 3 1 5 -13 5 -14 0 -19 -2 -12 -5z"/>
</g>
</svg>
